<svg width="60" height="60" viewBox="0 0 60 60" fill="none" xmlns="http://www.w3.org/2000/svg">
<g opacity="0.29">
<path d="M30 60C46.5685 60 60 46.5685 60 30C60 13.4315 46.5685 0 30 0C13.4315 0 0 13.4315 0 30C0 46.5685 13.4315 60 30 60Z" fill="#FAB915"/>
<path fill-rule="evenodd" clip-rule="evenodd" d="M39.6093 28.8281C39.6093 28.8281 44.5312 31.2766 44.5312 36.4999C44.5312 41.7232 40.8136 45.4688 35.3906 45.4688H32.8125V47.1094C32.8165 47.2644 32.7889 47.4186 32.7315 47.5626C32.674 47.7066 32.5878 47.8374 32.4782 47.947C32.3686 48.0566 32.2378 48.1428 32.0938 48.2003C31.9498 48.2577 31.7956 48.2853 31.6406 48.2812H29.5312C29.3762 48.2853 29.222 48.2577 29.078 48.2003C28.934 48.1428 28.8032 48.0566 28.6936 47.947C28.584 47.8374 28.4978 47.7066 28.4403 47.5626C28.3829 47.4186 28.3553 47.2644 28.3593 47.1094V45.4688H26.0156V47.1094C26.0196 47.2644 25.9921 47.4186 25.9346 47.5626C25.8771 47.7066 25.7909 47.8374 25.6813 47.947C25.5717 48.0566 25.4409 48.1428 25.2969 48.2003C25.1529 48.2577 24.9987 48.2853 24.8437 48.2812H22.7343C22.5793 48.2853 22.4252 48.2577 22.2812 48.2003C22.1372 48.1428 22.0064 48.0566 21.8967 47.947C21.7871 47.8374 21.7009 47.7066 21.6435 47.5626C21.586 47.4186 21.5584 47.2644 21.5625 47.1094V45.4688H19.4531C19.2981 45.4728 19.1439 45.4452 18.9999 45.3878C18.8559 45.3303 18.7251 45.2441 18.6155 45.1345C18.5058 45.0249 18.4197 44.8941 18.3622 44.7501C18.3047 44.6061 18.2772 44.4519 18.2812 44.2969V42.8906C18.2772 42.7356 18.3047 42.5814 18.3622 42.4374C18.4197 42.2934 18.5058 42.1627 18.6155 42.053C18.7251 41.9434 18.8559 41.8572 18.9999 41.7997C19.1439 41.7423 19.2981 41.7147 19.4531 41.7188H21.5625V18.5156H19.4531C19.2981 18.5197 19.1439 18.4921 18.9999 18.4346C18.8559 18.3772 18.7251 18.291 18.6155 18.1814C18.5058 18.0717 18.4197 17.9409 18.3622 17.7969C18.3047 17.6529 18.2772 17.4987 18.2812 17.3437V16.1719C18.2772 16.0169 18.3047 15.8627 18.3622 15.7187C18.4197 15.5747 18.5058 15.4439 18.6155 15.3343C18.7251 15.2246 18.8559 15.1385 18.9999 15.081C19.1439 15.0235 19.2981 14.996 19.4531 15H21.5625V12.8906C21.5584 12.7356 21.586 12.5814 21.6435 12.4374C21.7009 12.2934 21.7871 12.1626 21.8967 12.053C22.0064 11.9434 22.1372 11.8572 22.2812 11.7997C22.4252 11.7423 22.5793 11.7147 22.7343 11.7187H24.8437C24.9987 11.7147 25.1529 11.7423 25.2969 11.7997C25.4409 11.8572 25.5717 11.9434 25.6813 12.053C25.7909 12.1626 25.8771 12.2934 25.9346 12.4374C25.9921 12.5814 26.0196 12.7356 26.0156 12.8906V15H28.3593V12.8906C28.3553 12.7356 28.3829 12.5814 28.4403 12.4374C28.4978 12.2934 28.584 12.1626 28.6936 12.053C28.8032 11.9434 28.934 11.8572 29.078 11.7997C29.222 11.7423 29.3762 11.7147 29.5312 11.7187H31.6406C31.7956 11.7147 31.9498 11.7423 32.0938 11.7997C32.2378 11.8572 32.3686 11.9434 32.4782 12.053C32.5878 12.1626 32.674 12.2934 32.7315 12.4374C32.7889 12.5814 32.8165 12.7356 32.8125 12.8906V15H34.9218C34.9218 15 42.8906 15.3637 42.8906 22.7344C42.8906 28.1318 39.6093 28.8281 39.6093 28.8281ZM34.9218 18.5156H26.0156V27.6562H34.9218C34.9218 27.6562 38.9062 27.1451 38.9062 22.7344C38.9062 19.1651 36.0318 18.5585 34.9218 18.5156ZM36.3281 31.1719H26.0156V41.7188H35.3906C35.3906 41.7188 40.0889 40.7365 40.0889 36.4999C40.0889 32.2634 37.1144 31.1684 36.3281 31.1719Z" fill="white"/>
</g>
</svg>
