<svg width="23" height="23" viewBox="0 0 23 23" fill="none" xmlns="http://www.w3.org/2000/svg">
<path d="M18.4 10.2181V18.4H4.59998V7.66667H12.7819L17.3819 3.06667H4.59998C3.75282 3.06667 3.06665 3.75283 3.06665 4.6V18.4C3.06665 19.2472 3.75282 19.9333 4.59998 19.9333H18.4C19.2472 19.9333 19.9333 19.2472 19.9333 18.4V8.68557L18.4 10.2181Z" fill="#FDFFFD"/>
<path d="M22.2004 4.24964L22.6029 3.84714C23.1319 3.31814 23.1319 2.45947 22.6029 1.93047C22.0739 1.40147 21.2152 1.40147 20.6862 1.93047L20.2837 2.33297L22.2004 4.24964Z" fill="#FDFFFD"/>
<path d="M19.1996 3.41704L11.0975 11.5192L10.7333 13.8L13.0142 13.4358L21.1163 5.33371L19.1996 3.41704Z" fill="#FDFFFD"/>
</svg>
