<svg width="15" height="14" viewBox="0 0 15 14" fill="none" xmlns="http://www.w3.org/2000/svg">
<path d="M3.68503 1.15126C2.17726 1.98703 1.06326 3.38752 0.588088 5.04464C0.112915 6.70177 0.315495 8.47978 1.15126 9.98755C1.98703 11.4953 3.38752 12.6093 5.04464 13.0845C6.70177 13.5597 8.47978 13.3571 9.98755 12.5213C10.176 12.4168 10.3153 12.2418 10.3747 12.0346C10.4341 11.8275 10.4087 11.6052 10.3043 11.4168C10.1998 11.2283 10.0247 11.0891 9.8176 11.0297C9.61045 10.9703 9.3882 10.9956 9.19973 11.1001C8.35644 11.5675 7.39347 11.7744 6.4326 11.6945C5.47172 11.6147 4.55611 11.2517 3.80153 10.6515C3.04695 10.0513 2.4873 9.24078 2.19336 8.3225C1.89941 7.40421 1.88437 6.41939 2.15014 5.49255C2.4159 4.56572 2.95054 3.73851 3.68643 3.11553C4.42233 2.49255 5.32644 2.10177 6.28442 1.99262C7.24241 1.88348 8.21125 2.06085 9.06842 2.50233C9.9256 2.9438 10.6326 3.62955 11.1001 4.47284L12.2818 6.60472C12.3862 6.79319 12.4116 7.01545 12.3522 7.22259C12.2928 7.42973 12.1535 7.60479 11.9651 7.70926C11.7766 7.81373 11.5543 7.83905 11.3472 7.77966C11.1401 7.72026 10.965 7.58101 10.8605 7.39254L9.6788 5.26065C9.36717 4.69846 8.89583 4.2413 8.32438 3.94698C7.75293 3.65266 7.10703 3.53441 6.46838 3.60718C5.82972 3.67994 5.22698 3.94046 4.73638 4.35578C4.24579 4.7711 3.88936 5.32258 3.71219 5.94046C3.53501 6.55835 3.54504 7.2149 3.741 7.82709C3.93697 8.43928 4.31006 8.97962 4.81311 9.37976C5.31617 9.77991 5.92658 10.0219 6.56716 10.0751C7.20774 10.1283 7.84972 9.99043 8.41192 9.6788C8.92284 9.39231 9.34577 8.97166 9.63501 8.46229C10.0054 8.95491 10.549 9.28854 11.1559 9.39571C11.7629 9.50287 12.3879 9.37559 12.9046 9.0396C13.4213 8.7036 13.7911 8.18395 13.9393 7.58571C14.0875 6.98747 14.0031 6.35527 13.703 5.81691L12.5213 3.68502C11.6843 2.17854 10.2838 1.06567 8.6272 0.590638C6.97057 0.115609 5.19316 0.317233 3.68503 1.15126V1.15126ZM7.6241 8.25754C7.343 8.41336 7.02201 8.48232 6.70172 8.4557C6.38143 8.42909 6.07623 8.3081 5.8247 8.10802C5.57317 7.90795 5.38663 7.63778 5.28864 7.33169C5.19066 7.02559 5.18565 6.69732 5.27424 6.38837C5.36282 6.07943 5.54104 5.80369 5.78634 5.59603C6.03163 5.38837 6.333 5.25811 6.65233 5.22173C6.97166 5.18535 7.29461 5.24447 7.58033 5.39163C7.86606 5.53879 8.10173 5.76737 8.25754 6.04847C8.46619 6.42547 8.51667 6.86988 8.3979 7.28407C8.27913 7.69827 8.00082 8.04839 7.6241 8.25754Z" fill="#FF753A"/>
</svg>
