<svg width="15" height="9" viewBox="0 0 15 9" fill="none" xmlns="http://www.w3.org/2000/svg">
<path fill-rule="evenodd" clip-rule="evenodd" d="M7.32732 8.61456C2.83851 8.61456 0 5.42948 0 4.57133C0 3.7297 2.83851 0 7.32732 0C11.8161 0 14.8527 3.48213 14.8527 4.57133C14.8527 5.67703 11.8161 8.61456 7.32732 8.61456ZM7.12932 2.37643C6.46926 2.37643 5.94111 2.90458 5.94111 3.56464C5.94111 4.22471 6.46926 4.75286 7.12932 4.75286C7.78938 4.75286 8.31754 4.22471 8.31754 3.56464C8.31742 2.90447 7.78938 2.37643 7.12932 2.37643ZM10.694 1.78232C11.123 2.35999 11.4201 2.9375 11.4201 3.71317C11.4201 5.61096 9.86882 7.1623 7.97101 7.1623C6.0731 7.1623 4.50538 5.62758 4.50538 3.71317C4.50538 2.5414 4.73641 1.7988 5.64411 1.18822C2.78913 1.61726 1.00678 3.8947 1.00678 4.52182C1.00678 5.21494 3.36664 7.70689 7.27791 7.70689C11.1891 7.70689 13.7636 5.41298 13.7636 4.52182C13.7636 3.94415 13.0869 2.7395 10.694 1.78229L10.694 1.78232Z" fill="#FF753A"/>
</svg>
