<svg width="10" height="16" viewBox="0 0 10 16" fill="none" xmlns="http://www.w3.org/2000/svg">
<path d="M1.38648 0C0.62387 0 0 0.62387 0 1.38648V14.2115C0 14.9741 0.62387 15.598 1.38648 15.598H7.83352C8.59613 15.598 9.22 14.9741 9.22 14.2115V1.38648C9.22 0.62387 8.59613 0 7.83352 0L1.38648 0ZM3.83728 1.33534H5.38317C5.48479 1.33534 5.56715 1.45187 5.56715 1.59538C5.56715 1.73889 5.48479 1.85542 5.38317 1.85542H3.83728C3.73566 1.85542 3.65329 1.73889 3.65329 1.59538C3.65329 1.45187 3.73565 1.33534 3.83728 1.33534ZM0.761384 3.18904H8.4585V12.4092H0.761384V3.18904ZM4.60994 13.1454C5.08402 13.1454 5.46829 13.5297 5.46829 14.0037C5.46829 14.4778 5.08399 14.8621 4.60994 14.8621C4.1359 14.8621 3.7516 14.4778 3.7516 14.0037C3.7516 13.5297 4.1359 13.1454 4.60994 13.1454Z" fill="#FF753A"/>
</svg>
