<svg width="375" height="375" viewBox="0 0 375 375" fill="none" xmlns="http://www.w3.org/2000/svg">
<path d="M323.233 324.304C323.233 324.304 331.108 321.867 341.878 320.057C352.649 318.248 360.905 311.464 361.7 304.079C362.495 296.694 354.005 291.591 341.717 299.101C329.812 306.376 323.233 324.304 323.233 324.304Z" fill="#0B8224"/>
<path d="M325.347 322.181C333.105 314.548 343.396 306.157 355.217 300.805" stroke="#ECBDBB" stroke-width="0.685276" stroke-miterlimit="10" stroke-linecap="round" stroke-linejoin="round"/>
<path d="M329.699 301.023C320.987 309.879 308.505 319.023 304.93 324.192C304.93 324.192 302.805 316.429 304.38 305.523C305.193 299.948 306.968 293.548 310.499 286.948C310.862 286.267 311.23 285.617 311.599 284.986C321.749 267.604 332.937 269.929 336.899 275.142C341.005 280.548 338.405 292.173 329.699 301.023Z" fill="#9AB3DA"/>
<path d="M311.599 284.986L311.124 299.786L304.38 305.523C305.193 299.948 306.968 293.548 310.499 286.948C310.861 286.267 311.23 285.617 311.599 284.986Z" fill="#161616"/>
<path d="M330.461 278.824C330.461 278.824 315.977 288.704 306.092 318.699" stroke="#D4E6FC" stroke-width="0.652077" stroke-miterlimit="10" stroke-linecap="round" stroke-linejoin="round"/>
<path d="M51.7674 324.304C51.7674 324.304 43.8924 321.867 33.1217 320.057C22.351 318.248 14.0952 311.464 13.3 304.079C12.5049 296.694 20.995 291.591 33.2833 299.101C45.1877 306.376 51.7674 324.304 51.7674 324.304Z" fill="#0B8224"/>
<path d="M49.6532 322.181C41.8949 314.548 31.6041 306.157 19.7833 300.805" stroke="#ECBDBB" stroke-width="0.656821" stroke-miterlimit="10" stroke-linecap="round" stroke-linejoin="round"/>
<path d="M70.8846 324.193C70.8846 324.193 75.7426 306.451 65.3138 286.947C54.8849 267.444 43.0203 269.74 38.9153 275.144C34.8103 280.547 37.4072 292.171 46.1167 301.025C54.8262 309.878 67.312 319.022 70.8846 324.193Z" fill="#9AB3DA"/>
<path d="M45.3538 278.824C45.3538 278.824 59.838 288.704 69.7226 318.699" stroke="#DEEBFF" stroke-width="0.625" stroke-miterlimit="10" stroke-linecap="round" stroke-linejoin="round"/>
<path d="M128.027 324.307C128.027 324.307 133.131 321.999 140.241 319.871C147.35 317.742 152.344 312.472 152.257 307.425C152.171 302.379 146.016 299.655 138.364 305.755C130.952 311.664 128.027 324.307 128.027 324.307Z" fill="#9AB3DA"/>
<path d="M279.542 76.3665C279.542 76.3665 278.046 89.0421 269.138 92.806C269.138 92.806 271.17 102.517 284.032 102.529C296.895 102.541 300.797 95.4329 300.797 95.4329C300.797 95.4329 293.875 91.2214 295.431 80.8957C296.987 70.5699 281.467 68.6384 279.542 76.3665Z" fill="#161616"/>
<path d="M226.904 53.5544L225.886 52.6461C225.208 52.042 224.703 51.2688 224.423 50.4056L220.802 39.263C220.658 38.8206 220.876 38.3418 221.305 38.1607C221.754 37.9706 222.273 38.175 222.472 38.6206L224.471 43.0983L223 36.9184C222.89 36.4567 223.169 35.9916 223.627 35.8698H223.627C224.058 35.7554 224.506 35.9827 224.667 36.3978L226.885 42.0866L226.056 35.4468C225.989 34.9104 226.382 34.4263 226.921 34.3824C227.374 34.3455 227.79 34.6346 227.913 35.0721L229.724 41.516L229.018 35.664C228.964 35.2111 229.279 34.7967 229.73 34.7287C230.167 34.6628 230.581 34.9452 230.679 35.376L233.001 45.5902L233.617 42.3479C233.732 41.7444 234.323 41.355 234.923 41.4874V41.4874C235.426 41.5985 235.782 42.0465 235.777 42.5615L235.729 47.7448C235.717 48.969 235.252 50.1455 234.424 51.0468L233.104 52.4821L234.563 56.5759L228.705 58.3985L226.904 53.5544Z" fill="#ECBDBB"/>
<path d="M232.764 46.2052C232.764 46.2052 229.291 47.1604 229.491 51.3451" stroke="#161616" stroke-width="0.656821" stroke-miterlimit="10" stroke-linecap="round" stroke-linejoin="round"/>
<path d="M224.422 44.6195C224.422 44.6195 227.608 43.0192 230.611 42.3748" stroke="#161616" stroke-width="0.656821" stroke-miterlimit="10" stroke-linecap="round" stroke-linejoin="round"/>
<path d="M226.204 57.4023L235.16 54.8728L250.859 88.1183L272.161 98.9357C272.161 98.9357 279.63 102.663 275.583 110.632C271.535 118.6 263.431 114.325 263.431 114.325L242.845 100.456C240.4 98.8092 238.584 96.3842 237.692 93.5749L226.204 57.4023Z" fill="#0B8224"/>
<path d="M256.22 294.114L255.988 305.542L261.07 304.465L262.009 293.393L256.22 294.114Z" fill="#ECBDBB"/>
<path d="M262.978 300.307V323.041H244.963C244.623 320.571 244.644 318.267 245.421 316.323C245.421 316.323 246.032 315.706 246.962 314.505C248.828 312.09 251.972 307.288 253.95 300.307H262.978Z" fill="#0B8224"/>
<path d="M262.978 318.752V323.041H244.963C244.623 320.571 244.644 318.267 245.421 316.324C245.421 316.324 245.872 315.449 246.962 314.505C248.225 313.416 250.348 312.236 253.624 312.236C259.724 312.236 260.55 318.752 260.55 318.752H262.978Z" fill="#9AB3DA"/>
<path d="M260.549 302.51C260.549 302.51 259.56 308.446 257.334 311.497" stroke="#ECBDBB" stroke-width="0.685276" stroke-miterlimit="10" stroke-linecap="round" stroke-linejoin="round"/>
<path d="M255.355 302.51C255.355 302.51 254.366 308.446 252.139 311.497" stroke="#ECBDBB" stroke-width="0.685276" stroke-miterlimit="10" stroke-linecap="round" stroke-linejoin="round"/>
<path d="M279.168 175.208L274.998 207.775L263.791 295.352L252.57 295.546L248.394 173.119C248.253 168.996 249.271 164.916 251.333 161.342L253.314 157.907C256.199 152.905 261.97 150.32 267.623 151.497H267.623C273.432 152.707 277.749 157.6 278.226 163.514L279.168 175.208Z" fill="#9AB3DA"/>
<path d="M279.168 175.208L274.998 207.775L269.237 186.808L265.075 170.931L279.168 175.208Z" fill="#161616"/>
<path d="M268.515 184.142L271.367 194.671C271.78 196.197 273.035 197.348 274.591 197.628L276.259 197.929" stroke="#D4E6FC" stroke-width="0.652077" stroke-miterlimit="10" stroke-linecap="round" stroke-linejoin="round"/>
<path d="M270.232 202.04L261.806 291.789" stroke="#D4E6FC" stroke-width="0.652077" stroke-miterlimit="10" stroke-linecap="round" stroke-linejoin="round"/>
<path d="M258.576 250.86C261.281 250.71 263.281 247.151 263.045 242.912C262.809 238.673 260.426 235.359 257.722 235.509C255.018 235.66 253.017 239.219 253.253 243.458C253.489 247.697 255.872 251.011 258.576 250.86Z" stroke="#D4E6FC" stroke-width="0.652077" stroke-miterlimit="10" stroke-linecap="round" stroke-linejoin="round"/>
<path d="M253.873 292.766L263.322 292.662" stroke="#D4E6FC" stroke-width="0.652077" stroke-miterlimit="10" stroke-linecap="round" stroke-linejoin="round"/>
<path d="M305.952 294.189L307.276 305.542L302.114 304.955L300.121 294.024L305.952 294.189Z" fill="#ECBDBB"/>
<path d="M300.285 300.307V323.041H318.301C318.641 320.571 318.62 318.267 317.843 316.323C317.843 316.323 317.232 315.706 316.302 314.505C314.436 312.09 311.292 307.288 309.314 300.307H300.285Z" fill="#0B8224"/>
<path d="M300.285 318.752V323.041H318.301C318.641 320.57 318.62 318.266 317.843 316.323C317.843 316.323 317.392 315.449 316.302 314.505C315.039 313.416 312.916 312.236 309.64 312.236C303.54 312.236 302.714 318.752 302.714 318.752H300.285Z" fill="#9AB3DA"/>
<path d="M302.714 302.509C302.714 302.509 303.704 308.446 305.93 311.497" stroke="#ECBDBB" stroke-width="0.685276" stroke-miterlimit="10" stroke-linecap="round" stroke-linejoin="round"/>
<path d="M307.909 302.509C307.909 302.509 308.898 308.446 311.124 311.497" stroke="#ECBDBB" stroke-width="0.685276" stroke-miterlimit="10" stroke-linecap="round" stroke-linejoin="round"/>
<path d="M270.729 173.553L279.006 210.039L298.535 296.144L309.723 295.265L301.056 170.866L297.316 162.82C294.667 157.119 288.431 154.004 282.282 155.309H282.281C276.745 156.483 272.53 160.989 271.727 166.592L270.729 173.553Z" fill="#9AB3DA"/>
<path d="M283.203 203.875L300.169 292.408" stroke="#D4E6FC" stroke-width="0.652077" stroke-miterlimit="10" stroke-linecap="round" stroke-linejoin="round"/>
<path d="M299.472 251.358C302.178 251.249 304.234 247.722 304.064 243.48C303.893 239.238 301.562 235.887 298.855 235.996C296.149 236.104 294.094 239.631 294.264 243.873C294.434 248.116 296.766 251.467 299.472 251.358Z" stroke="#D4E6FC" stroke-width="0.652077" stroke-miterlimit="10" stroke-linecap="round" stroke-linejoin="round"/>
<path d="M308.16 292.622L298.745 293.422" stroke="#D4E6FC" stroke-width="0.652077" stroke-miterlimit="10" stroke-linecap="round" stroke-linejoin="round"/>
<path d="M280.82 98.6919C272.039 98.931 266.784 96.6277 266.784 96.6277C266.784 96.6277 256.258 118.487 256.626 121.208C256.995 123.93 259.388 136.517 259.388 136.517L246.001 168.785C246.001 168.785 255.145 177.327 269.986 177.589C284.827 177.85 304.623 170.324 304.623 170.324C304.623 170.324 294.507 142.611 294.387 139.519C294.266 136.426 302.073 120.108 302.45 113.183C302.828 106.257 280.82 98.6919 280.82 98.6919Z" fill="#0B8224"/>
<path d="M266.168 97.9172C265.051 100.269 262.608 105.467 260.472 110.385" stroke="#ECBDBB" stroke-width="0.532807" stroke-miterlimit="10" stroke-linecap="round" stroke-linejoin="round"/>
<path d="M250.208 166.81C250.208 166.81 259.231 172.137 269.372 173.012C279.513 173.887 300.792 166.981 300.792 166.981" stroke="#ECBDBB" stroke-width="0.685276" stroke-miterlimit="10" stroke-linecap="round" stroke-linejoin="round"/>
<path d="M282.182 97.8272C274.495 96.3171 272.447 103.095 272.443 107.218C272.443 107.218 275.166 105.736 279.948 105.493C279.948 105.493 282.503 106.732 285.056 110.445C285.056 110.445 293.146 99.9812 282.182 97.8272Z" fill="#9AB3DA"/>
<path d="M286.973 88.6005L286.602 91.2927L285.226 101.208L280.442 103.848L278.141 100.792L279.84 94.5967L280.787 91.1485L286.973 88.6005Z" fill="#ECBDBB"/>
<path d="M286.973 88.6005L286.602 91.2927C284.275 94.0109 281.186 94.5146 279.84 94.5967L280.787 91.1485L286.973 88.6005Z" fill="#161616"/>
<path d="M277.548 76.2256C277.548 76.2256 274.937 81.095 275.186 87.1912C275.434 93.2875 280.306 93.6245 285.05 91.2421C289.794 88.8596 292.353 81.6698 292.353 81.6698C292.353 81.6698 294.17 75.4885 289.914 72.9893C285.658 70.4901 280.225 71.6044 277.548 76.2256Z" fill="#ECBDBB"/>
<path d="M289.436 74.9402C289.436 74.9402 283.284 80.4966 275.015 77.6546C271.756 71.041 281.819 61.7694 290.03 70.9103C301.93 74.0376 297.528 86.2158 290.767 85.2088C290.767 85.2088 287.732 82.0739 289.436 74.9402Z" fill="#161616"/>
<path d="M287.615 87.9921L289.772 84.4154C289.772 84.4154 292.137 81.9701 294.615 83.2893C297.092 84.6086 295.015 91.4468 287.615 87.9921Z" fill="#ECBDBB"/>
<path d="M293.974 84.8215C293.974 84.8215 291.215 84.7247 289.092 86.6321" stroke="#161616" stroke-width="0.650101" stroke-miterlimit="10" stroke-linecap="round" stroke-linejoin="round"/>
<path d="M292.048 87.4108C292.048 87.4108 292.218 86.3407 291.947 85.1072" stroke="#161616" stroke-width="0.650101" stroke-miterlimit="10" stroke-linecap="round" stroke-linejoin="round"/>
<path d="M289.899 87.6401C288.815 87.7112 288.035 89.2552 288.155 91.0887C288.275 92.9222 289.251 94.3509 290.335 94.2798C291.418 94.2087 292.199 92.6647 292.078 90.8312C292.032 90.1238 291.858 89.4766 291.6 88.9525" stroke="#0B8224" stroke-width="0.650101" stroke-miterlimit="10" stroke-linecap="round" stroke-linejoin="round"/>
<path d="M287.298 79.9793C287.298 79.9793 286.74 77.3318 284.727 77.7702C284.727 77.7702 284.816 77.2242 284.353 77.0926C283.89 76.9609 283.468 78.4079 283.468 78.4079C283.468 78.4079 285.654 78.7815 287.298 79.9793Z" fill="#161616"/>
<path d="M276.99 78.5231C276.99 78.5231 277.749 76.1677 278.96 77.186C278.96 77.186 279.108 76.7535 279.421 76.7806C279.961 76.8276 279.714 78.2288 279.714 78.2288C279.714 78.2288 278.217 77.8729 276.99 78.5231Z" fill="#161616"/>
<path d="M285.267 83.2652C285.418 82.5883 285.097 81.9402 284.55 81.8177C284.002 81.6952 283.436 82.1446 283.284 82.8215C283.133 83.4984 283.454 84.1465 284.001 84.269C284.549 84.3915 285.115 83.9421 285.267 83.2652Z" fill="#161616"/>
<path d="M284.154 82.8297C284.304 82.8297 284.425 82.7087 284.425 82.5596C284.425 82.4104 284.304 82.2894 284.154 82.2894C284.005 82.2894 283.884 82.4104 283.884 82.5596C283.884 82.7087 284.005 82.8297 284.154 82.8297Z" fill="white"/>
<path d="M279.427 81.9582C279.579 81.2813 279.258 80.6332 278.71 80.5107C278.163 80.3882 277.596 80.8376 277.444 81.5145C277.293 82.1914 277.614 82.8395 278.161 82.962C278.709 83.0845 279.276 82.6351 279.427 81.9582Z" fill="#161616"/>
<path d="M278.314 81.5226C278.464 81.5226 278.585 81.4016 278.585 81.2524C278.585 81.1032 278.464 80.9823 278.314 80.9823C278.165 80.9823 278.044 81.1032 278.044 81.2524C278.044 81.4016 278.165 81.5226 278.314 81.5226Z" fill="white"/>
<path d="M281.074 82.0587L280.519 84.4519C280.519 84.4519 278.8 84.0816 278.965 85.1448C279.126 86.1892 280.538 86.1546 280.538 86.1546" stroke="#161616" stroke-width="0.647588" stroke-miterlimit="10" stroke-linecap="round" stroke-linejoin="round"/>
<path d="M278.707 89.0826C278.707 89.0826 281.275 89.8841 283.9 88.1556C281.668 88.1206 279.678 87.8663 278.401 86.9685L278.707 89.0826Z" fill="white"/>
<path d="M300.797 109.497C304.81 112.419 319.624 145.723 319.624 145.723C319.624 145.723 321.497 153.164 313.699 155.014C313.699 155.014 304.46 156.324 305.442 149.008L306.971 146.772C306.971 146.772 295.821 131.853 290.941 124.821C286.06 117.789 293.706 104.332 300.797 109.497Z" fill="#0B8224"/>
<path d="M294.497 129.824C293.152 127.962 291.92 126.232 290.941 124.821C286.471 118.381 292.508 106.552 299.002 108.573" stroke="#ECBDBB" stroke-width="0.532807" stroke-miterlimit="10" stroke-linecap="round" stroke-linejoin="round"/>
<path d="M43.6437 113.381C43.6437 113.381 43.6634 113.423 43.699 113.491C43.9022 113.847 44.0596 114.219 44.1727 114.6C44.9567 116.802 45.896 121.727 41.5378 126.979C34.8593 128.363 30.9494 125.224 29.3681 123.501C29.085 123.223 28.8304 122.909 28.611 122.563C28.5674 122.499 28.5436 122.46 28.5436 122.46C27.1834 120.198 27.7737 117.349 29.858 116.095C31.9423 114.842 34.7314 115.659 36.0916 117.922C34.7314 115.659 35.3217 112.81 37.406 111.557C39.4903 110.304 42.2834 111.118 43.6437 113.381Z" fill="#9AB3DA"/>
<path d="M348.071 221.526C348.071 221.526 348.055 221.553 348.029 221.6C347.904 221.853 347.752 222.086 347.578 222.297C346.622 223.592 344.169 226.023 339.492 225.553C336.133 222.27 336.423 218.828 336.799 217.262C336.849 216.994 336.93 216.728 337.044 216.469C337.063 216.42 337.077 216.391 337.077 216.391C337.846 214.744 339.701 213.985 341.218 214.694C342.736 215.403 343.342 217.311 342.572 218.958C343.342 217.311 345.196 216.552 346.714 217.261C348.232 217.97 348.84 219.879 348.071 221.526Z" fill="#9AB3DA"/>
<path d="M140.429 106.58L139.45 105.437C138.799 104.677 138.362 103.758 138.183 102.773L135.871 90.0642C135.78 89.5597 136.089 89.0689 136.584 88.9341H136.584C137.103 88.7928 137.64 89.0928 137.791 89.609L139.315 94.7964L138.62 87.8272C138.568 87.3066 138.94 86.8394 139.459 86.774C139.947 86.7126 140.403 87.0271 140.518 87.5045L142.101 94.0472L142.175 86.6704C142.181 86.0745 142.683 85.6037 143.278 85.6353C143.778 85.6618 144.19 86.0391 144.26 86.5352L145.287 93.843L145.38 87.3452C145.387 86.8422 145.793 86.436 146.296 86.4283C146.783 86.4209 147.194 86.7904 147.237 87.2756L148.266 98.7781L149.418 95.3267C149.633 94.6843 150.335 94.346 150.971 94.5793H150.971C151.504 94.7748 151.828 95.317 151.746 95.879L150.928 101.535C150.735 102.871 150.053 104.088 149.015 104.95L147.361 106.323L148.351 111.011L141.682 112.138L140.429 106.58Z" fill="#ECBDBB"/>
<path d="M147.916 99.4154C147.916 99.4154 143.981 99.9464 143.581 104.548" stroke="#161616" stroke-width="0.656821" stroke-miterlimit="10" stroke-linecap="round" stroke-linejoin="round"/>
<path d="M139.036 96.4512C139.036 96.4512 142.753 95.1731 146.13 94.9124" stroke="#161616" stroke-width="0.656821" stroke-miterlimit="10" stroke-linecap="round" stroke-linejoin="round"/>
<path d="M157.793 104.299L146.705 131.046L149.826 140.855C151.397 144.595 156.551 144.811 158.326 141.163C163.167 131.213 173.647 111.36 173.647 111.36C176.009 105.717 164.98 88.4083 157.793 104.299Z" fill="#9AB3DA"/>
<path d="M139.185 117.094L137.37 111.727L150.059 108.174L151.508 113.577L139.185 117.094Z" fill="white"/>
<path d="M139.185 117.094L137.37 111.727L150.059 108.174L151.508 113.577L139.185 117.094Z" stroke="#9AB3DA" stroke-width="0.656821" stroke-miterlimit="10" stroke-linecap="round" stroke-linejoin="round"/>
<path d="M151.79 111.36L137.676 116.052C137.676 116.052 141.02 129.808 143.696 140.115C145.084 145.463 151.465 147.677 155.867 144.337L155.867 144.337C158.392 142.421 159.494 139.159 158.647 136.104L151.79 111.36Z" fill="#9AB3DA"/>
<path d="M158.647 136.104L153.7 118.252" stroke="#161616" stroke-width="0.656821" stroke-miterlimit="10" stroke-linecap="round" stroke-linejoin="round"/>
<path d="M141.458 120.364C142.246 120.364 142.886 119.725 142.886 118.936C142.886 118.148 142.246 117.509 141.458 117.509C140.67 117.509 140.03 118.148 140.03 118.936C140.03 119.725 140.67 120.364 141.458 120.364Z" fill="#161616"/>
<path d="M231.624 114.472L232.727 113.53C233.461 112.903 234.015 112.092 234.332 111.181L238.432 99.4187C238.595 98.9518 238.374 98.438 237.922 98.2357C237.449 98.0235 236.893 98.2292 236.671 98.6984L234.445 103.413L236.148 96.877C236.275 96.3888 235.99 95.8882 235.506 95.7483C235.05 95.6171 234.569 95.8486 234.388 96.2862L231.903 102.283L232.934 95.2441C233.017 94.6754 232.609 94.152 232.038 94.0932V94.0932C231.557 94.0438 231.109 94.3417 230.968 94.804L228.898 101.613L229.78 95.4083C229.848 94.928 229.522 94.4805 229.044 94.398H229.044C228.581 94.3182 228.135 94.6089 228.021 95.0647L225.323 105.869L224.741 102.409C224.632 101.765 224.013 101.338 223.373 101.465C222.836 101.572 222.447 102.04 222.44 102.588L222.375 108.098C222.359 109.4 222.827 110.661 223.688 111.637L225.058 113.193L223.416 117.511L229.6 119.58L231.624 114.472Z" fill="#ECBDBB"/>
<path d="M225.561 106.529C225.561 106.529 229.231 107.622 228.924 112.066" stroke="#161616" stroke-width="0.656821" stroke-miterlimit="10" stroke-linecap="round" stroke-linejoin="round"/>
<path d="M234.463 105.031C234.463 105.031 231.114 103.258 227.936 102.505" stroke="#161616" stroke-width="0.656821" stroke-miterlimit="10" stroke-linecap="round" stroke-linejoin="round"/>
<path d="M214.597 108.586L221.41 136.727L216.807 145.935C214.676 149.386 209.55 148.801 208.362 144.923C205.12 134.343 197.842 113.107 197.842 113.107C196.382 107.166 209.959 91.7738 214.597 108.586Z" fill="#9AB3DA"/>
<path d="M230.999 124.108L233.624 119.087L221.638 113.612L219.37 118.725L230.999 124.108Z" fill="white"/>
<path d="M230.999 124.108L233.624 119.087L221.638 113.612L219.37 118.725L230.999 124.108Z" stroke="#9AB3DA" stroke-width="0.656821" stroke-miterlimit="10" stroke-linecap="round" stroke-linejoin="round"/>
<path d="M219.435 116.491L232.651 123.312C232.651 123.312 227.218 136.384 222.978 146.153C220.778 151.221 214.132 152.42 210.3 148.439L210.3 148.439C208.102 146.155 207.519 142.761 208.828 139.874L219.435 116.491Z" fill="#9AB3DA"/>
<path d="M210.815 135.494L216.481 123.005" stroke="#161616" stroke-width="0.656821" stroke-miterlimit="10" stroke-linecap="round" stroke-linejoin="round"/>
<path d="M228.469 127.003C229.257 127.003 229.896 126.364 229.896 125.576C229.896 124.787 229.257 124.148 228.469 124.148C227.68 124.148 227.041 124.787 227.041 125.576C227.041 126.364 227.68 127.003 228.469 127.003Z" fill="#161616"/>
<path d="M188.599 297.513C188.599 297.513 188.661 298.991 188.737 300.846C188.879 303.916 189.061 308.016 189.084 308.121C189.12 308.285 186.095 309.924 186.095 309.924L182.421 309.352L181.644 304.041L180.927 299.129L188.599 297.513Z" fill="#ECBDBB"/>
<path d="M173.155 324.304H192.666C192.666 324.304 192.768 322.482 192.647 319.938C192.481 316.198 191.835 310.886 189.7 307.504C189.7 307.504 184.777 308.962 180.744 307.728C180.744 307.728 177.797 313.36 174.965 317.4C174.945 317.432 174.92 317.464 174.901 317.496C173.494 319.491 173.149 322.137 173.155 324.304Z" fill="#161616"/>
<path d="M180.959 317.752C180.959 317.752 183.662 314.063 185.706 309.698" stroke="#9AB3DA" stroke-width="0.656821" stroke-miterlimit="10" stroke-linecap="round" stroke-linejoin="round"/>
<path d="M170.349 324.304H193.286V319.938H185.283C185.283 319.938 185.327 313.047 178.321 313.047C171.314 313.047 170.349 318.979 170.349 324.304Z" fill="#0B8224"/>
<path d="M188.599 297.513C188.599 297.513 188.661 298.991 188.737 300.846C187.09 301.584 184.112 302.937 181.644 304.041L180.927 299.129L188.599 297.513Z" fill="#161616"/>
<path d="M155.407 175.125C155.407 175.125 165.262 238.948 167.056 247.903C168.843 256.865 178.698 300.755 178.698 300.755C178.698 300.755 184.355 301.259 191.685 300.083C191.685 299.411 187.99 252.27 187.768 248.017C187.64 245.599 188.131 229.381 188.574 215.636C188.803 208.689 189.018 202.374 189.132 198.793C189.192 196.999 189.226 195.891 189.226 195.73C189.226 194.608 190.999 167.916 181.386 157.658C171.772 147.399 154.513 156.314 155.407 175.125Z" fill="#0B8224"/>
<path d="M176.652 260.068C179.669 259.719 181.678 255.657 181.139 250.996C180.6 246.335 177.717 242.839 174.699 243.188C171.681 243.538 169.672 247.599 170.211 252.26C170.75 256.921 173.634 260.417 176.652 260.068Z" stroke="#ECBDBB" stroke-width="0.656821" stroke-miterlimit="10" stroke-linecap="round" stroke-linejoin="round"/>
<path d="M182.505 199.226C182.505 199.226 183.849 247.233 183.849 251.936C183.849 256.639 187.656 297.396 187.656 297.396" stroke="#ECBDBB" stroke-width="0.656821" stroke-miterlimit="10" stroke-linecap="round" stroke-linejoin="round"/>
<path d="M182.196 186.004C182.196 186.004 180.386 200.249 188.574 215.636C188.803 208.689 189.017 202.374 189.132 198.793L186.478 197.967C186.478 197.967 183.34 190.392 182.196 186.004Z" fill="#161616"/>
<path d="M180.386 176.115C180.386 176.115 182.374 191.587 186.478 197.967L189.132 198.793C189.132 198.793 185.674 188.033 185.091 176.115" stroke="#ECBDBB" stroke-width="0.656821" stroke-miterlimit="10" stroke-linecap="round" stroke-linejoin="round"/>
<path d="M217.584 297.513C217.584 297.513 217.647 298.991 217.722 300.846C217.864 303.916 218.046 308.016 218.069 308.121C218.105 308.285 215.08 309.924 215.08 309.924L211.406 309.352L210.629 304.041L209.913 299.129L217.584 297.513Z" fill="#ECBDBB"/>
<path d="M226.731 324.304H207.221C207.221 324.304 207.119 322.482 207.24 319.938C207.406 316.198 208.052 310.886 210.187 307.504C210.187 307.504 215.109 308.962 219.143 307.728C219.143 307.728 222.09 313.36 224.922 317.4C224.941 317.432 224.967 317.464 224.986 317.496C226.393 319.491 226.738 322.137 226.731 324.304Z" fill="#161616"/>
<path d="M218.928 317.752C218.928 317.752 216.225 314.063 214.181 309.698" stroke="#9AB3DA" stroke-width="0.656821" stroke-miterlimit="10" stroke-linecap="round" stroke-linejoin="round"/>
<path d="M229.538 324.304H206.601V319.938H214.604C214.604 319.938 214.56 313.047 221.566 313.047C228.572 313.047 229.538 318.979 229.538 324.304Z" fill="#0B8224"/>
<path d="M217.584 297.513C217.584 297.513 217.647 298.991 217.722 300.846C216.075 301.584 213.097 302.937 210.629 304.041L209.913 299.129L217.584 297.513Z" fill="#161616"/>
<path d="M184.392 175.125C184.392 175.125 198.164 238.948 199.958 247.903C201.745 256.865 207.683 300.755 207.683 300.755C207.683 300.755 213.34 301.259 220.67 300.083C220.67 299.411 220.891 252.27 220.67 248.017C220.542 245.599 219.984 167.916 210.371 157.658C200.757 147.399 183.498 156.314 184.392 175.125Z" fill="#0B8224"/>
<path d="M213.628 260.068C216.665 259.979 219.015 256.105 218.878 251.415C218.741 246.724 216.168 242.994 213.131 243.083C210.095 243.172 207.744 247.046 207.882 251.736C208.019 256.427 210.592 260.157 213.628 260.068Z" stroke="#ECBDBB" stroke-width="0.656821" stroke-miterlimit="10" stroke-linecap="round" stroke-linejoin="round"/>
<path d="M193.671 200.313C193.671 200.313 203.953 247.5 204.448 252.177C204.942 256.854 209.121 297.396 209.121 297.396" stroke="#ECBDBB" stroke-width="0.656821" stroke-miterlimit="10" stroke-linecap="round" stroke-linejoin="round"/>
<path d="M208.258 147.748C207.083 138.343 213.633 120.204 210.274 101.729C210.274 101.729 200.365 94.5067 190.623 93.1631C180.882 91.8195 162.763 98.341 162.763 98.341C162.763 98.341 161.567 143.885 161.231 147.244C160.895 150.604 151.49 175.965 151.49 175.965C151.49 175.965 160.26 182.499 173.004 186.042L183.513 173.781C183.513 173.781 190.331 184.896 192.249 188.131C200.611 187.532 209.507 184.777 218.168 178.316C218.168 178.316 209.434 157.154 208.258 147.748Z" fill="#9AB3DA"/>
<path d="M210.51 103.129C212.104 113.378 210.778 123.458 209.554 131.93C209.554 131.93 208.164 140.675 208.157 143.582" stroke="#161616" stroke-width="0.656821" stroke-miterlimit="10" stroke-linecap="round" stroke-linejoin="round"/>
<path d="M161.537 143.098C162.168 133.85 162.011 110.505 162.54 101.952" stroke="#161616" stroke-width="0.656821" stroke-miterlimit="10" stroke-linecap="round" stroke-linejoin="round"/>
<path d="M206.579 162.024L207.866 166.559L195.046 169.918L193.702 165.328L206.579 162.024Z" fill="#161616"/>
<path d="M164.224 160.785L162.664 165.233L175.257 169.363L176.877 164.862L164.224 160.785Z" fill="#161616"/>
<path d="M184.241 173.025L187.6 169.54C187.6 169.54 185.249 156.482 185.081 134.984" stroke="#161616" stroke-width="0.656821" stroke-miterlimit="10" stroke-linecap="round" stroke-linejoin="round"/>
<path d="M189.783 91.0637C189.783 91.0637 194.066 91.9035 201.456 95.9344C201.456 95.9344 205.123 100.665 207.139 107.719L198.741 109.399L202.548 116.789L185.081 134.144L172.092 115.557L176.795 106.935L168.621 105.368C168.621 105.368 172.54 97.0541 174.667 94.9267C176.795 92.7992 186.424 90.6158 189.783 91.0637Z" fill="#161616"/>
<path d="M189.951 93.2889C192.404 93.7796 197.393 95.9934 199.906 97.1524C198.555 102.138 192.619 121.419 185.304 130.673C185.304 130.673 179.572 107.23 177.113 95.4866C180.345 94.5892 187.397 92.778 189.951 93.2889Z" fill="white"/>
<path d="M182.484 118.966C183.004 115.48 184.505 106.244 186.648 99.9931L189.154 99.4613L190.903 100.553C190.903 100.553 192.213 108.884 192.009 119.041C190.003 123.429 187.731 127.604 185.305 130.673C185.305 130.673 184.061 125.585 182.484 118.966Z" fill="#161616"/>
<path d="M190.455 104.92C190.455 104.92 187.894 104.668 186.382 104.752" stroke="#9AB3DA" stroke-width="0.656821" stroke-miterlimit="10" stroke-linecap="round" stroke-linejoin="round"/>
<path d="M188.578 100.441C188.578 100.441 191.881 102.009 195.296 105.368C195.296 105.368 196.08 93.387 189.754 92.2113C183.428 91.0356 181.692 103.688 181.692 103.688C181.692 103.688 183.316 102.009 188.578 100.441Z" fill="white"/>
<path d="M185.287 94.0933C182.556 97.3894 181.692 103.688 181.692 103.688C181.692 103.688 183.316 102.009 188.578 100.441C188.578 100.441 191.881 102.009 195.296 105.368C195.296 105.368 195.7 99.2016 193.592 95.2824" stroke="#9AB3DA" stroke-width="0.656821" stroke-miterlimit="10" stroke-linecap="round" stroke-linejoin="round"/>
<path d="M187.445 96.9858C187.445 96.9858 189.252 98.2421 191.725 97.3217L192.578 91.2552L193.519 84.5975L187.539 79.4648L187.486 79.4177V79.8343L187.479 83.2606L187.445 96.9858Z" fill="#ECBDBB"/>
<path d="M187.479 83.2603C187.754 85.9274 188.829 89.7097 192.578 91.2549L193.519 84.5972L187.539 79.4645C187.513 79.6056 187.499 79.7265 187.486 79.834C187.445 80.1699 187.445 80.3714 187.445 80.3849C187.445 80.3849 187.311 81.6076 187.479 83.2603Z" fill="#161616"/>
<path d="M198.202 77.8273C198.202 77.8273 199.616 75.77 201.272 76.802C202.928 77.834 201.573 82.2392 197.927 82.7076L198.202 77.8273Z" fill="#ECBDBB"/>
<path d="M200.604 78.1052C200.604 78.1052 199.416 78.6046 198.548 80.6285" stroke="#161616" stroke-width="0.656821" stroke-miterlimit="10" stroke-linecap="round" stroke-linejoin="round"/>
<path d="M192.483 68.6618C197.815 67.9643 199.53 75.6599 199.206 81.3982C198.882 87.1365 194.318 91.0703 189.272 86.9581C184.225 82.846 181.58 70.0879 192.483 68.6618Z" fill="#ECBDBB"/>
<path d="M187.49 88.185L187.514 84.6978L187.354 81.3524L186.218 77.4842C186.218 77.4842 190.483 77.3831 188.539 72.5746C188.539 72.5746 194.298 78.1431 199.508 77.2822C204.721 76.428 208.015 69.9679 206.933 68.2629C205.904 66.6287 203.621 68.7359 203.44 68.907C203.664 68.5152 208.039 60.9957 204.4 57.1683C200.668 53.2453 192.163 61.6091 187.25 66.6797C186.497 67.4546 185.76 68.1768 185.054 68.8562C185.413 67.598 185.948 65.5822 186.333 63.4987C186.962 60.0597 182 61.5518 183.222 70.5291C183.222 70.5291 179.179 66.0603 177.184 67.5221C175.5 68.7454 178.871 71.1556 181.855 71.8979C179.586 74.1204 178.084 75.9635 178.144 78.0905C178.244 81.6492 187.49 88.185 187.49 88.185Z" fill="#161616"/>
<path d="M186.118 79.5467C186.118 79.5467 185.071 77.328 182.523 78.107C179.975 78.8859 181.903 84.5313 187.074 83.0422L186.118 79.5467Z" fill="#ECBDBB"/>
<path d="M185.895 81.5852C185.895 81.5852 184.889 79.4146 182.679 79.4389" stroke="#161616" stroke-width="0.656821" stroke-miterlimit="10" stroke-linecap="round" stroke-linejoin="round"/>
<path d="M183.829 81.6028C183.829 81.6028 183.774 80.7188 184.43 79.9423" stroke="#161616" stroke-width="0.656821" stroke-miterlimit="10" stroke-linecap="round" stroke-linejoin="round"/>
<path d="M189.33 77.3123C189.33 77.3123 190.212 75.1315 191.868 75.814C191.868 75.814 191.875 75.3331 192.292 75.2912C192.708 75.2492 192.848 76.5521 192.848 76.5521C192.848 76.5521 190.921 76.5382 189.33 77.3123Z" fill="#161616"/>
<path d="M198.829 76.3879C198.829 76.3879 197.967 74.417 197.009 75.4042C197.009 75.4042 196.842 75.0431 196.574 75.094C196.111 75.1821 196.447 76.3724 196.447 76.3724C196.447 76.3724 197.711 75.9332 198.829 76.3879Z" fill="#161616"/>
<path d="M191.983 81.0935C192.47 81.0722 192.844 80.5665 192.818 79.964C192.791 79.3615 192.375 78.8903 191.888 78.9116C191.4 78.9329 191.027 79.4386 191.053 80.0411C191.079 80.6436 191.496 81.1148 191.983 81.0935Z" fill="#161616"/>
<path d="M192.113 79.8419C192.243 79.8419 192.348 79.7368 192.348 79.607C192.348 79.4773 192.243 79.3722 192.113 79.3722C191.983 79.3722 191.878 79.4773 191.878 79.607C191.878 79.7368 191.983 79.8419 192.113 79.8419Z" fill="white"/>
<path d="M197.181 80.8662C197.668 80.8449 198.042 80.3392 198.016 79.7367C197.989 79.1342 197.573 78.663 197.086 78.6843C196.598 78.7056 196.225 79.2113 196.251 79.8138C196.277 80.4163 196.694 80.8875 197.181 80.8662Z" fill="#161616"/>
<path d="M197.311 79.6146C197.441 79.6146 197.546 79.5095 197.546 79.3798C197.546 79.25 197.441 79.1449 197.311 79.1449C197.181 79.1449 197.076 79.25 197.076 79.3798C197.076 79.5095 197.181 79.6146 197.311 79.6146Z" fill="white"/>
<path d="M195.388 82.1136C195.388 82.1136 196.457 82.4532 196.26 83.2215C196.033 84.1117 194.76 83.8457 194.76 83.8457" stroke="#161616" stroke-width="0.656821" stroke-miterlimit="10" stroke-linecap="round" stroke-linejoin="round"/>
<path d="M191.87 82.4869C193.222 82.4869 194.319 81.3908 194.319 80.0387C194.319 78.6866 193.222 77.5905 191.87 77.5905C190.518 77.5905 189.422 78.6866 189.422 80.0387C189.422 81.3908 190.518 82.4869 191.87 82.4869Z" stroke="#161616" stroke-width="0.656821" stroke-miterlimit="10" stroke-linecap="round" stroke-linejoin="round"/>
<path d="M197.905 82.0644C199.257 82.0644 200.353 80.9683 200.353 79.6162C200.353 78.2641 199.257 77.168 197.905 77.168C196.553 77.168 195.457 78.2641 195.457 79.6162C195.457 80.9683 196.553 82.0644 197.905 82.0644Z" stroke="#161616" stroke-width="0.656821" stroke-miterlimit="10" stroke-linecap="round" stroke-linejoin="round"/>
<path d="M195.408 85.5315C195.408 85.5315 193.459 86.3158 191.477 84.4357" stroke="#161616" stroke-width="0.656821" stroke-miterlimit="10" stroke-linecap="round" stroke-linejoin="round"/>
<path d="M119.3 221.671V225.213" stroke="#6B81BE" stroke-width="0.625" stroke-miterlimit="10" stroke-linecap="round" stroke-linejoin="round"/>
<path d="M119.3 228.993V232.535" stroke="#6B81BE" stroke-width="0.625" stroke-miterlimit="10" stroke-linecap="round" stroke-linejoin="round"/>
<path d="M124.731 227.103H121.19" stroke="#6B81BE" stroke-width="0.625" stroke-miterlimit="10" stroke-linecap="round" stroke-linejoin="round"/>
<path d="M117.41 227.103H113.868" stroke="#6B81BE" stroke-width="0.625" stroke-miterlimit="10" stroke-linecap="round" stroke-linejoin="round"/>
<path d="M332.776 183.397V185.784" stroke="#6B81BE" stroke-width="0.625" stroke-miterlimit="10" stroke-linecap="round" stroke-linejoin="round"/>
<path d="M332.776 188.332V190.719" stroke="#6B81BE" stroke-width="0.625" stroke-miterlimit="10" stroke-linecap="round" stroke-linejoin="round"/>
<path d="M336.436 187.058H334.05" stroke="#6B81BE" stroke-width="0.625" stroke-miterlimit="10" stroke-linecap="round" stroke-linejoin="round"/>
<path d="M331.502 187.058H329.115" stroke="#6B81BE" stroke-width="0.625" stroke-miterlimit="10" stroke-linecap="round" stroke-linejoin="round"/>
<path d="M319.001 76.7794V79.0225" stroke="#6B81BE" stroke-width="0.625" stroke-miterlimit="10" stroke-linecap="round" stroke-linejoin="round"/>
<path d="M319.001 81.417V83.6601" stroke="#6B81BE" stroke-width="0.625" stroke-miterlimit="10" stroke-linecap="round" stroke-linejoin="round"/>
<path d="M322.441 80.2196H320.198" stroke="#6B81BE" stroke-width="0.625" stroke-miterlimit="10" stroke-linecap="round" stroke-linejoin="round"/>
<path d="M317.804 80.2196H315.561" stroke="#6B81BE" stroke-width="0.625" stroke-miterlimit="10" stroke-linecap="round" stroke-linejoin="round"/>
<path d="M56.704 82.3688V84.6119" stroke="#6B81BE" stroke-width="0.625" stroke-miterlimit="10" stroke-linecap="round" stroke-linejoin="round"/>
<path d="M56.704 87.0063V89.2495" stroke="#6B81BE" stroke-width="0.625" stroke-miterlimit="10" stroke-linecap="round" stroke-linejoin="round"/>
<path d="M60.1442 85.8091H57.9011" stroke="#6B81BE" stroke-width="0.625" stroke-miterlimit="10" stroke-linecap="round" stroke-linejoin="round"/>
<path d="M55.5068 85.8091H53.2637" stroke="#6B81BE" stroke-width="0.625" stroke-miterlimit="10" stroke-linecap="round" stroke-linejoin="round"/>
<path d="M42.7897 226.277V228.048" stroke="#6B81BE" stroke-width="0.625" stroke-miterlimit="10" stroke-linecap="round" stroke-linejoin="round"/>
<path d="M42.7897 229.938V231.709" stroke="#6B81BE" stroke-width="0.625" stroke-miterlimit="10" stroke-linecap="round" stroke-linejoin="round"/>
<path d="M45.5055 228.993H43.7347" stroke="#6B81BE" stroke-width="0.625" stroke-miterlimit="10" stroke-linecap="round" stroke-linejoin="round"/>
<path d="M41.8446 228.993H40.0739" stroke="#6B81BE" stroke-width="0.625" stroke-miterlimit="10" stroke-linecap="round" stroke-linejoin="round"/>
<path d="M24.9679 171.239C26.5179 171.239 27.7744 169.982 27.7744 168.432C27.7744 166.882 26.5179 165.625 24.9679 165.625C23.4179 165.625 22.1614 166.882 22.1614 168.432C22.1614 169.982 23.4179 171.239 24.9679 171.239Z" stroke="#6B81BE" stroke-width="0.625" stroke-miterlimit="10" stroke-linecap="round" stroke-linejoin="round"/>
<path d="M260.661 62.8049C262.387 62.8049 263.786 61.4057 263.786 59.6797C263.786 57.9538 262.387 56.5546 260.661 56.5546C258.935 56.5546 257.536 57.9538 257.536 59.6797C257.536 61.4057 258.935 62.8049 260.661 62.8049Z" fill="#E9F3FF"/>
<path d="M344.58 135.432C345.938 135.432 347.039 134.331 347.039 132.972C347.039 131.613 345.938 130.512 344.58 130.512C343.221 130.512 342.12 131.613 342.12 132.972C342.12 134.331 343.221 135.432 344.58 135.432Z" fill="#E9F3FF"/>
<path d="M56.704 200.563C56.704 200.563 67.446 212.861 93.1012 211.087C118.756 209.314 125.909 195.186 125.909 195.186L119.705 166.457L67.4781 173.102L56.704 200.563Z" fill="#9AB3DA"/>
<path d="M107.82 297.222L107.407 306.74C107.407 306.74 105.278 308.158 102.678 306.74L101.968 296.513L107.82 297.222Z" fill="#ECBDBB"/>
<path d="M99.1308 315.074C98.8761 317.566 99.1862 320.664 99.8993 324.193L101.968 324.193C101.968 324.193 102.914 318.621 103.978 316.139C105.042 313.656 100.136 312.887 99.1308 315.074Z" fill="#161616"/>
<path d="M101.968 305.321C101.968 305.321 104.214 306.444 108.116 305.321C108.116 305.321 114.5 316.079 116.687 318.03C118.875 319.981 123.663 322.109 125.318 322.996C126.973 323.882 114.323 324.533 111.367 324.001C108.412 323.469 105.929 319.744 103.446 317.735C100.963 315.725 99.1307 315.074 99.1307 315.074C99.1307 315.074 99.781 309.577 101.968 305.321Z" fill="#0B8224"/>
<path d="M117.456 169.951C117.456 169.951 121.298 190.111 120.766 198.445C120.234 206.779 115.623 242.247 115.623 242.247L109.771 298.109C109.771 298.109 103.121 299.35 100.017 297.666C100.017 297.666 99.042 282.06 97.9779 273.902C96.9139 265.744 97.9779 257.941 98.6873 251.469C98.6873 251.469 94.1651 224.513 93.1011 200.749C92.037 176.986 95.2292 163.863 104.451 162.976C113.673 162.089 117.456 169.951 117.456 169.951Z" fill="#161616"/>
<path d="M103.032 296.217C103.032 296.217 100.786 275.41 100.904 270.444C101.022 265.479 102.441 251.646 102.441 251.646L98.6411 199.893" stroke="#9AB3DA" stroke-width="0.620698" stroke-miterlimit="10" stroke-linecap="round" stroke-linejoin="round"/>
<path d="M67.7903 296.624L66.6667 306.851C66.6667 306.851 64.5386 308.27 61.9376 306.851L61.938 295.915L67.7903 296.624Z" fill="#ECBDBB"/>
<path d="M58.3908 315.186C58.1361 317.678 58.4462 320.775 59.1593 324.304L61.2283 324.304C61.2283 324.304 62.1741 318.733 63.2381 316.25C64.3022 313.767 59.3958 312.999 58.3908 315.186Z" fill="#161616"/>
<path d="M61.2283 305.432C61.2283 305.432 63.4746 306.556 67.3761 305.432C67.3761 305.432 73.7603 316.191 75.9475 318.142C78.1347 320.093 82.9229 322.221 84.5781 323.107C86.2332 323.994 73.583 324.644 70.6273 324.112C67.6717 323.58 65.1889 319.856 62.7061 317.846C60.2234 315.836 58.3909 315.186 58.3909 315.186C58.3909 315.186 59.0411 309.689 61.2283 305.432Z" fill="#0B8224"/>
<path d="M97.7563 180.467L96.2046 201.333C96.2046 201.333 82.4607 241.294 79.6233 249.984C76.7859 258.673 70.5198 296.21 70.5198 296.21C70.5198 296.21 68.6282 297.951 64.4903 297.951C60.3524 297.951 59.4065 295.974 59.4065 295.974C59.4065 295.974 58.5198 267.718 59.4065 260.447C60.2932 253.176 63.1307 242.181 63.308 237.038C63.4854 231.895 63.1307 203.698 64.3721 191.994C65.6134 180.289 71.111 162.238 83.7908 162.308C96.4706 162.378 98.3729 172.174 97.7563 180.467Z" fill="#161616"/>
<path d="M70.52 181.294C70.52 181.294 67.8008 216.526 67.8008 223.265C67.8008 230.004 66.7367 238.398 66.1456 243.008C65.5545 247.619 63.4264 259.678 63.0717 268.664C62.717 277.649 62.4806 294.792 62.4806 294.792" stroke="#9AB3DA" stroke-width="0.620698" stroke-miterlimit="10" stroke-linecap="round" stroke-linejoin="round"/>
<path d="M101.436 178.871L100.499 195.594C100.418 197.031 99.7456 198.371 98.6412 199.295L96.2048 201.333" stroke="#9AB3DA" stroke-width="0.620698" stroke-miterlimit="10" stroke-linecap="round" stroke-linejoin="round"/>
<path d="M97.7566 179.358L96.2048 201.333" stroke="#9AB3DA" stroke-width="0.620698" stroke-miterlimit="10" stroke-linecap="round" stroke-linejoin="round"/>
<path d="M92.0284 101.096C92.0284 101.096 104.121 88.3386 124.145 70.2076L127.659 71.2466C127.659 71.2466 134.198 76.5128 134.562 79.5212C134.926 82.5297 117.128 102.558 105.756 110.865C94.3834 119.171 92.0284 101.096 92.0284 101.096Z" fill="#0B8224"/>
<path d="M122.707 69.3804C122.707 69.3804 123.26 76.8508 130.557 80.8931C135.938 83.8736 139.394 81.4886 139.394 81.4886L140.643 76.5391C140.643 76.5391 137.928 70.8834 133.425 67.3975C128.922 63.9115 124.935 63.6248 124.935 63.6248L122.707 69.3804Z" fill="#161616"/>
<path d="M146.943 33.0043L143.118 43.9793C142.824 44.8293 142.305 45.5856 141.618 46.1668L140.249 46.7793C139.662 48.2418 135.855 75.1168 135.855 75.1168C129.837 72.4918 126.374 65.948 126.374 65.948L132.843 50.7168L134.68 46.098L133.187 44.4043C132.387 43.4918 131.949 42.3168 131.962 41.098L132.024 35.9605C132.03 35.448 132.393 35.0105 132.893 34.9106C133.493 34.7918 134.068 35.1918 134.168 35.7918L134.712 39.0231L137.23 28.9418C137.324 28.5668 137.662 28.3043 138.043 28.3043C138.093 28.3043 138.137 28.3106 138.187 28.3168C138.63 28.3981 138.937 28.8105 138.868 29.2605L138.049 35.048L139.98 28.6981C140.099 28.298 140.468 28.0293 140.874 28.0293C140.905 28.0293 140.943 28.0293 140.974 28.0356C141.512 28.0918 141.893 28.5793 141.812 29.1105L140.849 35.673L143.168 30.0793C143.305 29.748 143.624 29.5418 143.968 29.5418C144.049 29.5418 144.13 29.5543 144.212 29.5793C144.662 29.7105 144.93 30.1793 144.812 30.6293L143.224 36.7293L145.299 32.3293C145.449 32.0105 145.768 31.8231 146.105 31.8231C146.224 31.8231 146.349 31.848 146.468 31.898C146.887 32.0855 147.093 32.5668 146.943 33.0043Z" fill="#ECBDBB"/>
<path d="M134.934 39.7255C134.934 39.7255 138.358 40.7457 138.072 44.8913" stroke="#161616" stroke-width="0.656821" stroke-miterlimit="10" stroke-linecap="round" stroke-linejoin="round"/>
<path d="M143.24 38.3282C143.24 38.3282 140.115 36.6744 137.15 35.9722" stroke="#161616" stroke-width="0.656821" stroke-miterlimit="10" stroke-linecap="round" stroke-linejoin="round"/>
<path d="M89.2904 71.2401C89.2904 71.2401 88.366 65.7651 84.802 63.5346C81.2381 61.3041 77.3643 64.4738 75.2825 69.1583C73.2006 73.8427 75.4789 79.1269 82.346 76.2555C87.7409 73.9997 89.2904 71.2401 89.2904 71.2401Z" fill="#161616"/>
<path d="M88.251 70.9955C88.251 70.9955 80.9566 72.3543 79.795 78.2235C78.6334 84.0927 87.0747 91.6843 93.4288 90.2065C99.7829 88.7286 99.9695 83.7079 99.9695 83.7079C99.9695 83.7079 104.787 84.8073 106.337 80.3232C107.888 75.839 105.829 74.2842 103.275 73.9669C103.275 73.9669 105.983 68.6469 100.961 66.4554C95.9396 64.264 91.1139 65.7724 88.251 70.9955Z" fill="#161616"/>
<path d="M88.251 70.9955C88.2484 70.996 82.8886 71.9952 80.6274 75.9781" stroke="#9AB3DA" stroke-width="0.620698" stroke-miterlimit="10" stroke-linecap="round" stroke-linejoin="round"/>
<path d="M93.1013 97.0282L80.1555 108.289C80.1555 108.289 66.855 174.082 67.387 174.082C67.919 174.082 85.2392 179.58 100.963 176.565C116.687 173.55 119.525 169.472 119.525 169.472L111.899 126.91L110.867 105.097C110.673 100.999 107.397 97.7193 103.299 97.5212L93.1013 97.0282Z" fill="#9AB3DA"/>
<path d="M67.387 174.082C67.919 174.082 85.2392 179.58 100.963 176.565C116.687 173.55 119.525 169.471 119.525 169.471" stroke="#161616" stroke-width="0.620698" stroke-miterlimit="10" stroke-linecap="round" stroke-linejoin="round"/>
<path d="M75.0126 172.782C75.0126 172.782 100.431 175.265 116.865 167.816" stroke="#161616" stroke-width="0.620698" stroke-miterlimit="10" stroke-linecap="round" stroke-linejoin="round"/>
<path d="M93.1013 148.9C91.562 175.735 81.3969 197.846 81.3969 197.846C71.3453 203.521 56.7041 200.563 56.7041 200.563C56.7041 200.563 66.2663 162.023 68.6284 146.417C70.9906 130.811 72.7995 107.757 72.7995 107.757C72.7995 107.757 82.5957 99.1669 89.5687 96.5281C89.2495 99.8408 88.072 113.553 89.2566 123.363C90.6186 134.592 93.1013 148.9 93.1013 148.9Z" fill="#0B8224"/>
<path d="M96.2048 96.528C96.2048 96.528 97.5154 95.8359 99.7731 94.8314C105.181 92.4254 111.279 96.3699 111.279 102.289V108.644C111.279 108.644 115.003 121.058 115.18 123.274C115.358 125.491 113.495 133.205 113.495 133.205C113.495 133.205 124.668 176.388 125.909 195.186C125.909 195.186 119.259 194.831 112.343 193.146C112.343 193.146 112.372 177.038 111.781 165.097C111.19 153.156 109.298 145.117 109.298 145.117C109.298 145.117 102.56 116.979 100.963 111.068C99.3674 105.156 96.2048 96.528 96.2048 96.528Z" fill="#0B8224"/>
<path d="M117.341 148.898C115.194 139.772 113.495 133.205 113.495 133.205C113.495 133.205 115.358 125.491 115.18 123.274C115.003 121.058 111.279 108.644 111.279 108.644L111.444 102.679C111.532 99.5192 109.731 96.6103 106.863 95.2809L104.692 94.2744" stroke="#ECBDBB" stroke-width="0.532807" stroke-miterlimit="10" stroke-linecap="round" stroke-linejoin="round"/>
<path d="M91.8007 94.2202C88.2272 94.7796 85.1209 102.733 83.7909 109.767L87.7958 113.432L83.7909 120.526C83.7909 120.526 89.7909 135.54 93.1012 148.9C93.1012 148.9 91.5643 127.146 90.5002 115.146C90.7071 102.821 96.382 102.373 100.963 113.964C105.397 126.792 109.298 145.117 109.298 145.117C109.298 145.117 109.771 126.792 108.825 116.92L102.914 112.368L104.687 107.757C104.687 107.757 98.5988 93.1562 91.8007 94.2202Z" fill="#0B8224"/>
<path d="M109.229 140.991C109.229 140.991 109.771 126.792 108.825 116.92L102.914 112.368L104.687 107.757C104.687 107.757 102.625 102.811 99.5603 98.8859" stroke="#ECBDBB" stroke-width="0.532807" stroke-miterlimit="10" stroke-linecap="round" stroke-linejoin="round"/>
<path d="M87.5762 98.3417C85.896 101.411 84.5524 105.74 83.7909 109.767L87.7958 113.432L83.7909 120.526C83.7909 120.526 88.3718 131.989 91.7366 143.796" stroke="#ECBDBB" stroke-width="0.532807" stroke-miterlimit="10" stroke-linecap="round" stroke-linejoin="round"/>
<path d="M100.961 113.964C100.074 117.213 97.5347 118.632 97.5347 118.632C93.7538 118.341 90.4978 115.149 90.4978 115.149V102.671C90.4553 99.2732 89.6679 91.0943 89.3699 88.115C89.299 87.4198 89.2565 87.0084 89.2565 87.0084L95.1087 88.2569C95.1087 88.2569 95.2364 91.0163 95.4775 94.0878C95.7116 97.0104 96.0663 100.224 96.5274 101.607C97.4779 104.444 100.961 113.964 100.961 113.964Z" fill="#ECBDBB"/>
<path d="M95.4775 94.0878C92.1081 93.0451 90.3063 90.3211 89.3699 88.115C89.299 87.4198 89.2565 87.0084 89.2565 87.0084L95.1087 88.2569C95.1087 88.2569 95.2364 91.0163 95.4775 94.0878Z" fill="#161616"/>
<path d="M100.657 78.1508C100.657 78.1508 101.828 82.8668 100.296 88.0098C98.7646 93.1528 94.5387 92.3854 91.0106 89.3275C87.4825 86.2695 86.8574 79.5865 86.8574 79.5865C86.8574 79.5865 86.6465 73.9239 90.8155 72.7148C94.9845 71.5058 99.3748 73.6319 100.657 78.1508Z" fill="#ECBDBB"/>
<path d="M90.8008 74.4814C90.8008 74.4814 94.8422 80.5498 102.507 79.9173C102.507 79.9173 100.573 68.9399 91.1665 70.9174C81.7597 72.895 83.4716 80.5372 87.4435 82.9469C87.4435 82.9469 90.7091 80.9314 90.8008 74.4814Z" fill="#161616"/>
<path d="M89.5276 86.0016L88.4636 82.4859C88.4636 82.4859 86.9766 79.8893 84.5789 80.4775C82.1811 81.0657 82.4714 87.3446 89.5276 86.0016Z" fill="#ECBDBB"/>
<path d="M84.793 81.9224C84.793 81.9224 87.1663 82.4373 88.563 84.5228" stroke="#161616" stroke-width="0.620698" stroke-miterlimit="10" stroke-linecap="round" stroke-linejoin="round"/>
<path d="M85.8746 84.5466C85.8746 84.5466 85.9612 83.5976 86.459 82.6046" stroke="#161616" stroke-width="0.620698" stroke-miterlimit="10" stroke-linecap="round" stroke-linejoin="round"/>
<path d="M87.6568 85.2072C88.565 85.5023 88.8963 86.9875 88.3968 88.5244C87.8973 90.0613 86.7562 91.068 85.848 90.7728C84.9398 90.4777 84.6085 88.9925 85.108 87.4556C85.3008 86.8625 85.589 86.3484 85.9226 85.9576" stroke="#0B8224" stroke-width="0.620698" stroke-miterlimit="10" stroke-linecap="round" stroke-linejoin="round"/>
<path d="M91.1561 79.95C91.1561 79.95 92.2094 77.8058 93.8363 78.6183C93.8363 78.6183 93.879 78.1318 94.304 78.1198C94.7291 78.1079 94.7753 79.4377 94.7753 79.4377C94.7753 79.4377 92.824 79.2825 91.1561 79.95Z" fill="#161616"/>
<path d="M100.293 80.9444C100.293 80.9444 100.156 78.7639 98.8989 79.3722C98.8989 79.3722 98.8656 78.9697 98.5922 78.9251C98.1195 78.8478 98.0264 80.1005 98.0264 80.1005C98.0264 80.1005 99.3848 80.1214 100.293 80.9444Z" fill="#161616"/>
<path d="M94.3589 82.4953C94.3764 81.8831 93.9891 81.3754 93.494 81.3612C92.9988 81.3471 92.5833 81.8319 92.5658 82.4441C92.5483 83.0563 92.9356 83.5641 93.4307 83.5782C93.9259 83.5923 94.3414 83.1075 94.3589 82.4953Z" fill="#161616"/>
<path d="M93.6714 82.3208C93.8031 82.3208 93.9099 82.214 93.9099 82.0823C93.9099 81.9505 93.8031 81.8438 93.6714 81.8438C93.5396 81.8438 93.4329 81.9505 93.4329 82.0823C93.4329 82.214 93.5396 82.3208 93.6714 82.3208Z" fill="white"/>
<path d="M99.6405 82.646C99.658 82.0338 99.2707 81.5261 98.7756 81.512C98.2804 81.4979 97.8649 81.9827 97.8474 82.5949C97.8299 83.2071 98.2172 83.7148 98.7124 83.7289C99.2075 83.7431 99.6231 83.2582 99.6405 82.646Z" fill="#161616"/>
<path d="M98.9529 82.4714C99.0846 82.4714 99.1914 82.3646 99.1914 82.2329C99.1914 82.1012 99.0846 81.9944 98.9529 81.9944C98.8211 81.9944 98.7144 82.1012 98.7144 82.2329C98.7144 82.3646 98.8211 82.4714 98.9529 82.4714Z" fill="white"/>
<path d="M96.4163 82.323L96.3709 84.4915C96.3709 84.4915 97.9222 84.5481 97.5504 85.4222C97.1851 86.2809 95.9846 85.9445 95.9846 85.9445" stroke="#161616" stroke-width="0.620698" stroke-miterlimit="10" stroke-linecap="round" stroke-linejoin="round"/>
<path d="M96.575 88.3242C96.575 88.3242 94.5436 88.9758 92.6731 86.9263" stroke="#161616" stroke-width="0.620698" stroke-miterlimit="10" stroke-linecap="round" stroke-linejoin="round"/>
<path d="M266.496 324.305H332.484" stroke="#6B81BE" stroke-width="0.625" stroke-miterlimit="10" stroke-linecap="round" stroke-linejoin="round"/>
<path d="M43.7261 324.304H250.659" stroke="#6B81BE" stroke-width="0.625" stroke-miterlimit="10" stroke-linecap="round" stroke-linejoin="round"/>
<path d="M109.298 335.638H76.3213" stroke="#6B81BE" stroke-width="0.625" stroke-miterlimit="10" stroke-linecap="round" stroke-linejoin="round"/>
<path d="M309.373 335.638H120.035" stroke="#6B81BE" stroke-width="0.625" stroke-miterlimit="10" stroke-linecap="round" stroke-linejoin="round"/>
<path d="M217.434 346.971H239.783" stroke="#6B81BE" stroke-width="0.625" stroke-miterlimit="10" stroke-linecap="round" stroke-linejoin="round"/>
<path d="M109.555 346.971H210.058" stroke="#6B81BE" stroke-width="0.625" stroke-miterlimit="10" stroke-linecap="round" stroke-linejoin="round"/>
<path d="M82.87 147.428C79.3056 151.587 64.0308 271.477 64.0308 271.477C64.0308 271.477 74.7238 273.259 76.506 273.259C78.2882 273.259 79.7733 267.319 83.3377 266.725C86.902 266.131 95.2189 272.368 96.11 273.259V270.289C96.11 270.289 157.298 286.923 196.803 286.923C236.308 286.923 298.684 271.774 298.684 271.774V268.21C298.684 268.21 304.328 267.616 310.268 273.259C316.209 278.903 325.12 283.655 331.952 283.952C331.952 283.952 311.75 149.791 310.562 145.929L304.273 142.416C304.273 142.416 251.89 158.903 192.713 158.903C133.536 158.903 88.6842 144.348 88.6842 144.348L82.87 147.428Z" fill="#E9F3FF"/>
<path d="M92.6731 162.025C92.6731 162.025 126.598 185.474 162.664 192.49" stroke="#9AB3DA" stroke-width="0.532807" stroke-miterlimit="10" stroke-linecap="round" stroke-linejoin="round"/>
<path d="M292.024 159.213C292.024 159.213 262.117 178.528 232.652 181.294" stroke="#9AB3DA" stroke-width="0.532807" stroke-miterlimit="10" stroke-linecap="round" stroke-linejoin="round"/>
<path d="M300.792 163.759L299.164 258.021" stroke="#9AB3DA" stroke-width="0.532807" stroke-miterlimit="10" stroke-linecap="round" stroke-linejoin="round"/>
<path d="M292.739 177.595C292.739 177.595 263.707 249.704 212.655 264.853" stroke="#9AB3DA" stroke-width="0.532807" stroke-miterlimit="10" stroke-linecap="round" stroke-linejoin="round"/>
<path d="M100.293 199.295C100.293 199.295 137.764 258.912 185.92 259.209C185.92 259.209 214.151 257.639 233.624 238.043" stroke="#9AB3DA" stroke-width="0.532807" stroke-miterlimit="10" stroke-linecap="round" stroke-linejoin="round"/>
<path d="M94.239 196.755L95.9388 260.991" stroke="#9AB3DA" stroke-width="0.532807" stroke-miterlimit="10" stroke-linecap="round" stroke-linejoin="round"/>
<path d="M90.071 170.498L78.4353 263.368" stroke="#9AB3DA" stroke-width="0.532807" stroke-miterlimit="10" stroke-linecap="round" stroke-linejoin="round"/>
<path d="M154.669 227.42C150.289 227.137 145.905 226.669 141.514 225.885C141.622 223.19 141.732 220.415 141.845 217.53C145.754 218.376 149.659 218.929 153.56 219.262C153.608 217.811 153.656 216.314 153.705 214.768C149.813 214.432 145.918 213.882 142.018 213.072C142.12 210.433 142.224 207.699 142.329 204.852C146.441 205.496 150.548 205.994 154.652 206.325C154.703 204.596 154.754 202.817 154.805 200.99C148.841 200.507 142.87 199.806 136.888 199.167C136.434 209.853 136.015 219.218 135.632 229.078C141.945 230.21 148.244 230.737 154.535 231.098C154.579 229.92 154.624 228.694 154.669 227.42Z" fill="#9AB3DA" stroke="#9AB3DA" stroke-width="0.15625" stroke-miterlimit="10"/>
<path d="M177.576 228.042C173.313 227.949 169.052 227.8 164.793 227.546C165.379 220.224 166.047 211.511 166.789 201.586C164.926 201.415 163.064 201.224 161.202 201.013C160.278 213.043 159.476 223.051 158.804 230.875C164.961 231.445 171.117 231.906 177.272 232.324C177.372 230.916 177.474 229.488 177.576 228.042Z" fill="#9AB3DA" stroke="#9AB3DA" stroke-width="0.15625" stroke-miterlimit="10"/>
<path d="M195.214 233.341C198.961 233.344 201.929 232.5 203.275 231.665C202.979 229.964 202.684 228.311 202.389 226.701C200.906 227.534 198.5 228.149 196.192 228.251C189.355 228.466 185.41 224.372 185.528 217.818C185.658 210.528 190.244 206.454 196.492 206.142C199.048 205.99 201.052 206.356 202.509 206.828C202.932 205.493 203.355 204.203 203.776 202.962C202.64 202.518 200.004 201.961 196.317 202.049C186.953 202.018 179.813 208.513 179.598 218.578C179.404 227.508 185.306 233.029 195.214 233.341Z" fill="#9AB3DA" stroke="#9AB3DA" stroke-width="0.15625" stroke-miterlimit="10"/>
<path d="M220.453 232.601C229.081 231.757 235.421 225.92 235.328 216.065C235.247 207.066 229.868 200.736 220.897 201.281C212.245 201.469 206.286 206.616 206.209 216.067C206.139 224.944 211.64 233.027 220.453 232.601ZM220.769 204.947C226.387 204.832 229.309 209.844 229.341 215.623C229.377 221.908 226.289 227.168 220.782 227.364C215.32 227.512 212.156 221.823 212.184 215.634C212.212 209.323 215.197 205.007 220.769 204.947Z" fill="#9AB3DA" stroke="#9AB3DA" stroke-width="0.15625" stroke-miterlimit="10"/>
<path d="M114.306 224.483C116.364 224.782 118.424 225.07 120.484 225.348C120.596 225.091 120.705 224.834 120.817 224.577C118.233 221.903 115.842 219.256 113.663 216.719C113.871 219.306 114.084 221.895 114.306 224.483Z" fill="#9AB3DA"/>
<path d="M102.93 203.2C102.78 200.296 102.624 197.392 102.492 194.489C100.668 194.19 98.8448 193.881 97.0226 193.564L100.293 199.295C100.293 199.295 101.206 200.748 102.93 203.2Z" fill="#9AB3DA"/>
<path d="M128.598 198.151C127.032 202.533 125.441 206.909 123.826 211.279C122.561 214.809 121.399 218.124 120.429 221.328L120.336 221.317C120.28 218.028 120.057 214.628 119.74 210.989C119.313 206.287 118.91 201.586 118.532 196.885C116.619 196.627 114.706 196.359 112.795 196.082C111.062 200.411 109.303 204.735 107.519 209.05C107.486 209.132 107.454 209.212 107.422 209.294C108.378 210.535 109.419 211.856 110.548 213.247C110.732 212.805 110.918 212.365 111.101 211.923C112.504 208.655 113.499 205.869 114.486 202.765L114.576 202.778C114.483 206.052 114.631 208.955 114.941 212.464C115.138 214.694 115.342 216.925 115.551 219.156C117.763 221.664 120.188 224.279 122.807 226.919C126.727 217.571 130.518 208.189 134.172 198.774C132.313 198.576 130.455 198.368 128.598 198.151Z" fill="#9AB3DA"/>
<path d="M101.792 216.517L101.7 216.501C101.689 213.469 101.597 209.563 101.448 205.826C101.374 204.083 101.321 202.341 101.254 200.598C99.5628 198.123 98.84 196.58 98.84 196.58L95.7258 190.927C95.6136 190.906 95.2494 190.844 95.1372 190.823C95.7153 201.127 96.424 211.44 97.2632 221.757C99.3295 222.118 101.397 222.469 103.467 222.808C105.248 218.794 107.003 214.772 108.739 210.744C107.628 209.339 106.604 208.004 105.665 206.75C104.222 210.257 102.804 213.549 101.792 216.517Z" fill="#9AB3DA"/>
<path d="M244.755 229.973C244.711 228.221 244.663 226.468 244.618 224.716C243.021 226.909 241.554 228.777 240.27 230.328C241.765 230.214 243.26 230.098 244.755 229.973Z" fill="#9AB3DA"/>
<path d="M250.874 212.368C249.145 208.49 247.442 204.604 245.768 200.71C243.356 200.929 240.943 201.133 238.529 201.322C238.638 211.363 238.711 221.406 238.749 231.45C239.058 231.427 239.367 231.401 239.676 231.377C240.96 229.826 242.427 227.958 244.024 225.765C243.965 223.484 243.907 221.202 243.846 218.921C243.73 214.813 243.506 210.042 243.305 206.121L243.396 206.114C244.527 209.776 245.978 213.767 247.523 217.478C247.801 218.128 248.085 218.777 248.364 219.428C249.422 217.787 250.508 216.029 251.611 214.152C251.367 213.557 251.125 212.961 250.874 212.368Z" fill="#9AB3DA"/>
<path d="M267.458 197.348C265.083 197.653 262.707 197.943 260.329 198.218C259.408 202.365 258.459 206.511 257.479 210.654C256.674 214.285 256.001 218.077 255.5 221.402L255.361 221.417C254.428 218.736 253.357 215.918 252.205 213.103C251.102 214.98 250.016 216.738 248.958 218.378C250.456 221.863 251.971 225.344 253.512 228.818C254.999 228.672 256.486 228.52 257.972 228.362C259.048 223.884 260.091 219.403 261.099 214.919C262.048 210.996 262.845 206.815 263.397 203.066L263.532 203.049C263.972 207.084 264.758 211.706 265.408 215.536C265.821 217.948 266.238 220.359 266.654 222.77C268.21 220.702 269.698 218.634 271.122 216.582C269.889 210.173 268.665 203.762 267.458 197.348Z" fill="#9AB3DA"/>
<path d="M267.534 221.257C267.82 222.878 268.103 224.499 268.39 226.12C270.266 225.884 272.14 225.639 274.013 225.385C273.329 221.942 272.655 218.497 271.978 215.052C270.563 217.109 269.083 219.182 267.534 221.257Z" fill="#9AB3DA"/>
<path d="M293.714 196.447C293.452 194.969 293.19 193.49 292.928 192.012C290.339 192.47 287.747 192.905 285.153 193.328C284.301 194.925 283.383 196.599 282.403 198.332C286.178 197.74 289.949 197.114 293.714 196.447Z" fill="#9AB3DA"/>
<path d="M281.61 199.902C282.596 198.173 283.52 196.502 284.379 194.909C281.174 195.418 277.967 195.907 274.757 196.362C275.329 200.401 275.901 204.441 276.474 208.48C278.114 205.872 279.635 203.335 281.034 200.907C280.989 200.609 281.373 199.939 281.61 199.902Z" fill="#9AB3DA"/>
<path d="M298.873 221.485C298.609 220.007 298.345 218.529 298.081 217.051C293.702 217.832 289.317 218.564 284.925 219.246C284.474 216.338 284.021 213.429 283.569 210.521C287.438 209.92 291.303 209.279 295.162 208.6C294.904 207.135 294.647 205.672 294.389 204.208C290.559 204.882 286.724 205.517 282.884 206.114C282.533 203.856 282.182 201.597 281.831 199.339C280.441 201.772 278.93 204.315 277.299 206.929C278.155 212.807 279.01 218.685 279.866 224.563C286.213 223.639 292.55 222.613 298.873 221.485Z" fill="#9AB3DA"/>
<path d="M72.7992 107.757C77.8148 109.043 85.0932 117.258 82.2741 127.825C79.7528 137.276 70.9242 157.851 67.9107 160.005C64.8972 162.159 59.6764 159.472 59.6764 159.472L59.732 144.634C59.732 144.634 65.6675 122.724 68.3476 115.558C71.0276 108.391 72.7992 107.757 72.7992 107.757Z" fill="#0B8224"/>
<path d="M82.1243 128.373C79.4208 138.048 70.8672 157.892 67.9107 160.005C64.8972 162.159 59.6764 159.472 59.6764 159.472" stroke="#ECBDBB" stroke-width="0.532807" stroke-miterlimit="10" stroke-linecap="round" stroke-linejoin="round"/>
<path d="M62.4257 142.368C53.6891 142.155 51.4769 152.68 56.445 160.176C61.4131 167.672 73.9833 162.329 74.2139 154.045C74.4445 145.761 69.8964 142.551 62.4257 142.368Z" fill="#161616"/>
<path d="M80.7681 149.167C79.7566 151.379 78.3379 154.899 77.5207 156.948L68.6132 148.196C68.6132 148.196 62.9922 143.165 58.977 149.9C54.9618 156.635 61.2057 160.184 61.2057 160.184C61.2057 160.184 68.6734 162.536 75.1237 164.213L75.1263 164.205C78.1566 164.978 81.1995 165.568 81.893 165.326C83.7233 164.687 84.7667 159.58 84.7667 159.58C84.7667 159.58 87.8526 158.794 90.9512 158.916C94.0524 159.031 94.6287 156.978 91.9033 156.435C91.9033 156.435 94.1195 156.282 94.3746 155.089C94.6068 153.969 92.3875 153.7 92.1297 153.664C92.3752 153.624 94.2523 153.294 94.2784 152.29C94.3121 151.261 91.6053 150.973 91.3368 150.944C91.5282 150.905 93.2338 150.522 93.1516 149.519C93.0576 148.468 86.2203 148.149 82.9346 149.779C82.9346 149.779 83.9978 148.12 84.8778 146.647C85.7579 145.173 82.2727 145.889 80.7681 149.167Z" fill="#ECBDBB"/>
<path d="M91.0099 156.445C91.0099 156.445 87.0628 156.041 85.1072 156.337" stroke="#161616" stroke-width="0.620698" stroke-miterlimit="10" stroke-linecap="round" stroke-linejoin="round"/>
<path d="M91.0924 153.622C91.0924 153.622 87.1616 153.33 85.2227 153.658" stroke="#161616" stroke-width="0.620698" stroke-miterlimit="10" stroke-linecap="round" stroke-linejoin="round"/>
<path d="M90.7405 150.983C90.7405 150.983 86.9637 151.058 84.9719 151.556" stroke="#161616" stroke-width="0.620698" stroke-miterlimit="10" stroke-linecap="round" stroke-linejoin="round"/>
<path d="M315.691 155.42C317.458 153.609 313.74 147.565 312.394 146.063C312.305 145.963 312.226 145.853 312.154 145.736C311.766 145.317 311.389 144.915 311.047 144.561C308.209 141.629 304.22 142.176 305.713 143.417C307.207 144.659 308.965 146.029 308.965 146.029C304.845 145.526 297.668 148.438 297.963 149.595C298.252 150.696 300.216 150.463 300.435 150.432C300.16 150.565 297.379 151.89 297.802 152.976C298.208 154.038 300.335 153.684 300.612 153.634C300.35 153.769 298.083 154.892 298.752 156C299.473 157.177 301.896 156.506 301.896 156.506C299.192 158.112 300.578 160.085 303.845 158.797C307.107 157.501 310.696 157.18 310.696 157.18C310.696 157.18 313.923 157.231 315.691 155.42Z" fill="#ECBDBB"/>
<path d="M302.853 156.181C302.853 156.181 306.914 154.265 309.113 153.846" stroke="#161616" stroke-width="0.620698" stroke-miterlimit="10" stroke-linecap="round" stroke-linejoin="round"/>
<path d="M301.703 153.199C301.703 153.199 305.789 151.409 307.982 151.03" stroke="#161616" stroke-width="0.620698" stroke-miterlimit="10" stroke-linecap="round" stroke-linejoin="round"/>
<path d="M301.087 150.251C301.087 150.251 305.146 148.91 307.459 148.693" stroke="#161616" stroke-width="0.620698" stroke-miterlimit="10" stroke-linecap="round" stroke-linejoin="round"/>
</svg>
